<?xml version="1.0" encoding="UTF-8" standalone="no"?>
<svg
   xmlns:dc="http://purl.org/dc/elements/1.1/"
   xmlns:cc="http://creativecommons.org/ns#"
   xmlns:rdf="http://www.w3.org/1999/02/22-rdf-syntax-ns#"
   xmlns:svg="http://www.w3.org/2000/svg"
   xmlns="http://www.w3.org/2000/svg"
   xmlns:sodipodi="http://sodipodi.sourceforge.net/DTD/sodipodi-0.dtd"
   xmlns:inkscape="http://www.inkscape.org/namespaces/inkscape"
   version="1.1"
   width="595.27557"
   height="595.27557"
   id="svg7"
   viewBox="0 0 595.27557 595.27557"
   sodipodi:docname="Perfect_Money_Logo.cdr">
  <metadata
     id="metadata13">
    <rdf:RDF>
      <cc:Work
         rdf:about="">
        <dc:format>image/svg+xml</dc:format>
        <dc:type
           rdf:resource="http://purl.org/dc/dcmitype/StillImage" />
      </cc:Work>
    </rdf:RDF>
  </metadata>
  <defs
     id="defs11" />
  <sodipodi:namedview
     pagecolor="#ffffff"
     bordercolor="#666666"
     borderopacity="1"
     objecttolerance="10"
     gridtolerance="10"
     guidetolerance="10"
     inkscape:pageopacity="0"
     inkscape:pageshadow="2"
     inkscape:window-width="640"
     inkscape:window-height="480"
     id="namedview9" />
  <g
     id="Layer1000">
    <path
       d="M 297.6378,57.3664 A 240.2714,240.2714 0 0 1 537.9092,297.6378 240.2714,240.2714 0 1 1 297.6378,57.3664 Z"
       style="fill:#f01010;fill-rule:evenodd"
       id="path2" />
    <path
       d="m 287.4062,219.7412 h -10.3628 -9.9924 c -3.3325,-0.3772 -7.4044,-0.3772 -11.4691,-0.7422 -1.1054,0.365 -1.4891,1.4891 -1.8581,2.9644 -0.3674,1.485 0,2.5952 0.7527,3.7023 l 4.4386,0.3729 c 5.5398,1.0989 9.6093,2.2108 12.2146,3.3309 2.5795,1.4735 4.4243,4.067 5.1757,7.4028 0.738,3.329 1.1051,7.7627 0.738,13.3214 -0.3782,7.7694 -0.738,17.0154 -1.108,27.749 -0.3814,10.7461 -1.1142,21.8485 -1.8597,33.3235 -0.732,17.747 -2.3264,60.9847 -7.1485,73.7878 -1.1187,2.9586 -2.9626,4.8139 -5.1864,5.9398 -2.5982,1.0961 -5.5676,2.2075 -9.2665,2.591 l -5.9394,0.738 c -1.1047,0.7322 -1.4814,1.8568 -1.1047,3.7065 0,1.1119 0.3664,2.2145 1.4781,3.3322 4.8155,-0.3664 9.2649,-0.7415 14.0842,-1.1177 h 14.0947 15.1931 c 5.5535,0.3762 10.3763,0.7513 14.8203,1.1177 1.1187,-0.7415 1.8572,-1.8508 1.8572,-3.3322 0,-1.4936 -0.3693,-2.5966 -1.4901,-3.7065 l -10.3712,-0.738 c -3.3411,-0.3835 -5.9349,-1.1187 -7.7839,-2.591 -0.9297,-0.7539 -1.6745,-1.7832 -2.2321,-3.0437 -2.1876,-5.2594 -2.2313,-14.1633 -2.1178,-19.6895 0.2358,-11.4747 0.3755,-22.9431 0.7396,-34.4178 0.3732,-11.4749 0.7413,-21.4764 1.1054,-29.9844 0.3615,-7.7717 1.121,-15.9242 1.4816,-24.0625 0.3723,-8.1349 0.7354,-16.2858 1.1169,-24.4249 h 0.734 c 2.9665,6.2859 5.9317,12.5843 8.5203,19.6124 2.9642,6.6664 5.9212,13.3305 8.8746,19.6279 l 24.8012,52.9111 c 2.2323,4.455 4.8177,10.0088 7.7695,16.668 3.3398,7.0305 6.6589,13.6878 9.6299,20.346 1.5635,3.5267 2.9186,6.8389 4.0691,9.9413 0.296,0 2.3725,6.8211 2.6013,7.6148 1.4267,1.4475 3.7619,1.408 5.1902,0 2.3008,-5.5149 4.7048,-11.093 7.3819,-16.4325 7.009,-15.7369 14.321,-30.7636 22.579,-45.897 l 24.06,-47.7452 c 1.8541,-4.0836 3.6982,-8.5206 6.2902,-13.3296 2.5928,-5.1792 5.1782,-9.9917 7.407,-14.0603 1.8457,-4.4451 3.324,-7.4037 4.0562,-8.518 h 0.3774 l 0.7479,114.3821 c 0.3598,5.9136 0,10.3398 -0.3716,13.6698 -0.2977,2.6501 -1.0406,5.1667 -3.5869,6.4567 -1.4891,1.8476 -4.45,2.5828 -9.267,2.9663 l -8.1579,0.738 c -0.7415,0.7322 -1.1081,1.8568 -0.7415,3.7065 0,1.1119 0.3763,2.2145 1.4908,3.3322 5.5512,-0.3664 11.4735,-0.7415 17.0367,-1.1177 h 16.3185 15.5696 c 5.5507,0.3762 11.1085,0.7513 16.6808,1.1177 1.1145,-0.7415 1.4765,-1.8508 1.4765,-3.3322 0.3699,-1.4936 0,-2.5966 -0.7385,-3.7065 l -8.8952,-0.738 c -4.0803,-0.3835 -7.0429,-1.4949 -8.9071,-3.3493 -1.8347,-1.8455 -3.3215,-4.0712 -3.6933,-7.0394 -0.3768,-3.3257 -0.7502,-7.4183 -0.7502,-11.8594 -0.7584,-13.769 -1.2708,-27.7617 -1.6302,-41.5628 -0.3763,-14.8179 -1.1192,-28.874 -1.48,-42.1856 V 252.311 c 0,-6.2876 0.3608,-11.1018 1.1037,-14.8082 0.7521,-3.3224 2.6001,-6.2817 5.1855,-8.1333 2.5971,-1.4776 7.0298,-2.5971 12.951,-3.3309 l 5.557,-0.3729 c 0.7479,-0.7439 1.1094,-1.85 0.7479,-3.7023 0,-1.1168 -0.3765,-2.2222 -1.112,-2.9644 -4.4477,0.365 -8.8912,0.365 -12.9591,0.7422 h -11.474 -8.5082 c -3.3407,-0.3772 -7.0469,-0.3772 -11.8453,-0.7422 -0.3716,6.2836 -2.5929,13.3298 -5.9261,21.4722 -4.0696,8.4991 -8.8746,18.8785 -14.7974,31.0898 l -25.9157,52.1796 c -6.7205,14.2089 -12.8417,27.728 -21.074,41.201 h -0.7397 c -6.5508,-12.3618 -12.5882,-25.1882 -18.5295,-37.8596 l -31.4562,-62.929 c -4.0663,-8.882 -7.7725,-17.3893 -10.7318,-25.1627 -2.5954,-7.7692 -3.7008,-14.4317 -3.3334,-19.9913 -4.4386,0.365 -8.5154,0.365 -12.5859,0.7422 z M 135.5351,360.4366 c 0,9.4282 -0.3725,16.6035 -1.1266,21.5146 -0.7462,9.5159 -7.0252,12.6339 -15.8794,13.2446 l -5.672,0.7527 c -1.8272,1.831 -1.6866,5.7997 0.3924,7.1737 11.6947,-0.7225 22.2718,-1.1379 34.0046,-1.1379 12.5113,0 24.1737,0.5513 36.6485,1.1379 0.753,-0.7555 1.144,-1.8859 1.5193,-3.3956 0,-1.8853 -0.3753,-3.0309 -1.1358,-3.7781 l -7.5589,-0.7527 c -6.047,-0.391 -10.2008,-1.5247 -12.467,-3.4158 -0.1367,-0.0971 -0.2715,-0.198 -0.4041,-0.3012 -2.2875,-1.9002 -3.9217,-4.8008 -4.6099,-9.2925 -0.7495,-4.9042 -1.1292,-12.0693 -0.7495,-21.4846 v -26.4298 c -8.3034,0.3804 -15.8489,0 -22.6459,-1.1318 z M 111.3219,222.594 c -0.3723,1.5048 0.3863,2.6332 1.5172,3.7748 l 9.8125,1.1152 c 4.1463,0.3896 7.169,1.5165 9.0519,3.4069 1.8839,1.5032 3.023,4.1513 3.3927,8.3016 0.3839,4.144 0.7546,10.1945 0.7546,18.1027 v 55.8447 c 7.5488,0.3854 15.0913,0.3854 22.6459,0 v -76.9734 c -0.3797,-3.0138 0,-5.2756 0.7495,-7.166 0.3756,-1.1269 1.8871,-2.2699 3.7708,-2.6317 2.2627,-0.3812 6.044,-0.3812 10.9466,-0.3812 14.3343,0.3812 25.2774,4.1438 33.2003,12.0691 7.5474,7.9171 11.3163,18.8653 11.3163,32.4574 0.3915,12.0684 -2.6308,22.2563 -9.048,30.5506 -5.6602,7.1826 -13.9601,12.4606 -25.2849,15.0955 -10.9358,2.6439 -26.4033,3.7799 -47.1614,3.392 -18.1159,-0.3576 -37.7333,-1.4976 -59.2399,-3.76 23.7768,4.9049 41.5038,8.2943 52.8332,9.4242 18.4774,2.2758 36.5874,1.8871 53.5681,-0.7453 8.6774,-1.1425 16.6043,-3.3952 23.7752,-6.0393 6.7888,-3.0154 13.5849,-7.1657 20.7548,-12.0749 4.148,-3.0187 7.9188,-7.9386 11.3215,-14.3425 2.6438,-6.0335 4.1496,-13.2041 4.5209,-21.8899 -0.3713,-9.4343 -2.6373,-17.7169 -6.7829,-24.8995 -4.1529,-7.1683 -9.0595,-12.8309 -15.4774,-16.9667 -6.41,-3.779 -14.3369,-6.8108 -23.3914,-8.6963 -8.6799,-1.5032 -18.8703,-2.2601 -30.5631,-2.2601 -11.3254,0 -21.5101,0 -30.5639,0.3732 -9.0562,0.3837 -17.3563,0.7586 -24.5338,1.5106 -1.126,0.7652 -1.8853,1.8935 -1.8853,3.4083 z"
       style="fill:#ffffff;fill-rule:evenodd"
       id="path4" />
  </g>
</svg>
